<?xml version="1.0" encoding="UTF-8" standalone="no"?>
<!-- Created with Inkscape (http://www.inkscape.org/) -->

<svg
   xmlns:svg="http://www.w3.org/2000/svg"
   xmlns="http://www.w3.org/2000/svg"
   version="1.1"
   width="211"
   height="270.5"
   id="svg2">
  <defs
     id="defs4" />
  <g
     transform="translate(-294.5,-652.36214)"
     id="layer1">
    <path
       d="M 389.91888,135.50069 420,304.40942"
       transform="translate(0,527.95272)"
       id="path2820"
       style="fill:none;stroke:#000000;stroke-width:1px;stroke-linecap:butt;stroke-linejoin:miter;stroke-opacity:1" />
    <path
       d="m 430.00001,304.25204 a 8.4238043,10.157391 0 1 1 -16.84761,0 8.4238043,10.157391 0 1 1 16.84761,0 z"
       transform="matrix(1.296778,0,0,1.1114418,-125.76694,492.91434)"
       id="path2822"
       style="fill:#000000;fill-opacity:1;fill-rule:nonzero;stroke:#000000;stroke-width:1;stroke-miterlimit:4;stroke-opacity:1;stroke-dasharray:none;stroke-dashoffset:0;marker-start:none" />
    <path
       d="m 325,306.90942 a 15,7.5 0 1 1 -30,0 15,7.5 0 1 1 30,0 z"
       transform="translate(0,527.95272)"
       id="path3778"
       style="fill:#008000;fill-opacity:1;fill-rule:nonzero;stroke:#000000;stroke-width:1;stroke-miterlimit:4;stroke-opacity:1;stroke-dasharray:none;stroke-dashoffset:0" />
    <path
       d="M 295.09081,834.74757 295,831.36214 l 1,0 2,0 0,3 -2,1 -0.90919,-0.61457 z"
       id="path3837"
       style="fill:#008000;stroke:none" />
    <path
       d="m 321.56626,834.83686 -0.0908,-3.38543 1,0 2,0 0,3 -2,1 -0.90919,-0.61457 z"
       id="path3837-9"
       style="fill:#008000;stroke:none" />
    <path
       d="m 325,301.90942 a 15,7.5 0 1 1 -30,0 15,7.5 0 1 1 30,0 z"
       transform="translate(0,527.95272)"
       id="path3780-5-5"
       style="fill:#ff0000;fill-opacity:1;fill-rule:nonzero;stroke:#000000;stroke-width:0.1;stroke-miterlimit:4;stroke-opacity:1;stroke-dasharray:none;stroke-dashoffset:0" />
    <path
       d="m 325,301.90942 a 15,7.5 0 1 1 -30,0 15,7.5 0 1 1 30,0 z"
       transform="translate(0,522.95272)"
       id="path3780-5"
       style="fill:#ff0000;fill-opacity:1;fill-rule:nonzero;stroke:#000000;stroke-width:1;stroke-miterlimit:4;stroke-opacity:1;stroke-dasharray:none;stroke-dashoffset:0" />
    <path
       d="m 295,835.36214 0.0893,-10.5"
       id="path3811"
       style="fill:none;stroke:#000000;stroke-width:1px;stroke-linecap:butt;stroke-linejoin:miter;stroke-opacity:1" />
    <path
       d="M 324.82143,297.26657 325,307.40942"
       transform="translate(0,527.95272)"
       id="path3813"
       style="fill:none;stroke:#000000;stroke-width:1px;stroke-linecap:butt;stroke-linejoin:miter;stroke-opacity:1" />
    <path
       d="m 325,306.90942 a 15,7.5 0 1 1 -30,0 15,7.5 0 1 1 30,0 z"
       transform="translate(100,607.95272)"
       id="path3778-3"
       style="fill:#008000;fill-opacity:1;fill-rule:nonzero;stroke:#000000;stroke-width:1;stroke-miterlimit:4;stroke-opacity:1;stroke-dasharray:none;stroke-dashoffset:0" />
    <path
       d="M 395.09081,914.74757 395,911.36214 l 1,0 2,0 0,3 -2,1 -0.90919,-0.61457 z"
       id="path3837-3"
       style="fill:#008000;stroke:none" />
    <path
       d="m 421.56626,914.83686 -0.0908,-3.38543 1,0 2,0 0,3 -2,1 -0.90919,-0.61457 z"
       id="path3837-9-8"
       style="fill:#008000;stroke:none" />
    <path
       d="m 325,301.90942 a 15,7.5 0 1 1 -30,0 15,7.5 0 1 1 30,0 z"
       transform="translate(100,607.95272)"
       id="path3780-5-5-9"
       style="fill:#ff0000;fill-opacity:1;fill-rule:nonzero;stroke:#000000;stroke-width:0.1;stroke-miterlimit:4;stroke-opacity:1;stroke-dasharray:none;stroke-dashoffset:0" />
    <path
       d="m 325,301.90942 a 15,7.5 0 1 1 -30,0 15,7.5 0 1 1 30,0 z"
       transform="translate(100,602.95272)"
       id="path3780-5-55"
       style="fill:#ff0000;fill-opacity:1;fill-rule:nonzero;stroke:#000000;stroke-width:1;stroke-miterlimit:4;stroke-opacity:1;stroke-dasharray:none;stroke-dashoffset:0" />
    <path
       d="m 395,915.36214 0.0893,-10.5"
       id="path3811-3"
       style="fill:none;stroke:#000000;stroke-width:1px;stroke-linecap:butt;stroke-linejoin:miter;stroke-opacity:1" />
    <path
       d="M 424.82143,905.21929 425,915.36214"
       id="path3813-8"
       style="fill:none;stroke:#000000;stroke-width:1px;stroke-linecap:butt;stroke-linejoin:miter;stroke-opacity:1" />
    <path
       d="m 325,306.90942 a 15,7.5 0 1 1 -30,0 15,7.5 0 1 1 30,0 z"
       transform="translate(180,517.95272)"
       id="path3778-33"
       style="fill:#008000;fill-opacity:1;fill-rule:nonzero;stroke:#000000;stroke-width:1;stroke-miterlimit:4;stroke-opacity:1;stroke-dasharray:none;stroke-dashoffset:0" />
    <path
       d="M 475.09081,824.74757 475,821.36214 l 1,0 2,0 0,3 -2,1 -0.90919,-0.61457 z"
       id="path3837-6"
       style="fill:#008000;stroke:none" />
    <path
       d="m 501.56626,824.83686 -0.0908,-3.38543 1,0 2,0 0,3 -2,1 -0.90919,-0.61457 z"
       id="path3837-9-1"
       style="fill:#008000;stroke:none" />
    <path
       d="m 325,301.90942 a 15,7.5 0 1 1 -30,0 15,7.5 0 1 1 30,0 z"
       transform="translate(180,517.95272)"
       id="path3780-5-5-8"
       style="fill:#ff0000;fill-opacity:1;fill-rule:nonzero;stroke:#000000;stroke-width:0.1;stroke-miterlimit:4;stroke-opacity:1;stroke-dasharray:none;stroke-dashoffset:0" />
    <path
       d="m 325,301.90942 a 15,7.5 0 1 1 -30,0 15,7.5 0 1 1 30,0 z"
       transform="translate(180,512.95272)"
       id="path3780-5-7"
       style="fill:#ff0000;fill-opacity:1;fill-rule:nonzero;stroke:#000000;stroke-width:1;stroke-miterlimit:4;stroke-opacity:1;stroke-dasharray:none;stroke-dashoffset:0" />
    <path
       d="m 475,825.36214 0.0893,-10.5"
       id="path3811-0"
       style="fill:none;stroke:#000000;stroke-width:1px;stroke-linecap:butt;stroke-linejoin:miter;stroke-opacity:1" />
    <path
       d="M 504.82143,815.21929 505,825.36214"
       id="path3813-5"
       style="fill:none;stroke:#000000;stroke-width:1px;stroke-linecap:butt;stroke-linejoin:miter;stroke-opacity:1" />
    <path
       d="m 400.00001,139.76657 a 6.7857141,4.6428576 0 1 1 -13.57143,0 6.7857141,4.6428576 0 1 1 13.57143,0 z"
       transform="translate(-3.2142944,527.23843)"
       id="path3922"
       style="fill:#000000;fill-opacity:1;fill-rule:nonzero;stroke:none" />
    <rect
       width="20"
       height="20"
       x="380"
       y="124.40942"
       transform="translate(0,527.95272)"
       id="rect3924"
       style="fill:#000000;fill-opacity:1;fill-rule:nonzero;stroke:none" />
  </g>
</svg>
